<svg xmlns="http://www.w3.org/2000/svg" id="Layer_1" data-name="Layer 1" viewBox="0 0 114.81 25.53"><defs><style>.cls-1{fill:#010101;}</style></defs><path class="cls-1" d="M15.17,5.51A9.52,9.52,0,0,1,19.1,9.17a10.48,10.48,0,0,1,1.39,5.42A10.55,10.55,0,0,1,19.1,20a9.45,9.45,0,0,1-3.94,3.67A12.93,12.93,0,0,1,9.25,25h-8V4.21h8A12.88,12.88,0,0,1,15.17,5.51ZM13.52,19a5.81,5.81,0,0,0,1.65-4.43,5.91,5.91,0,0,0-1.65-4.46,6.32,6.32,0,0,0-4.61-1.6H6.44V20.59H8.91A6.39,6.39,0,0,0,13.52,19Z"></path><path class="cls-1" d="M26.67,24.17a7.72,7.72,0,0,1-3.14-3,8.55,8.55,0,0,1-1.15-4.49,8.57,8.57,0,0,1,1.16-4.48,7.84,7.84,0,0,1,3.18-3,10.34,10.34,0,0,1,9,0,7.78,7.78,0,0,1,3.18,3,8.57,8.57,0,0,1,1.16,4.48,8.42,8.42,0,0,1-1.18,4.48,7.83,7.83,0,0,1-3.2,3,9.88,9.88,0,0,1-4.54,1A9.69,9.69,0,0,1,26.67,24.17Zm7.06-4.41a4.14,4.14,0,0,0,1.05-3,4.24,4.24,0,0,0-1-3,3.55,3.55,0,0,0-5,0,4.22,4.22,0,0,0-1,3.06,4.3,4.3,0,0,0,1,3,3.26,3.26,0,0,0,2.49,1.07A3.45,3.45,0,0,0,33.73,19.76Z"></path><path class="cls-1" d="M52.38,20.68V25H49.72a6.64,6.64,0,0,1-4.43-1.35c-1.06-.89-1.59-2.36-1.59-4.39V12.67H41.63V8.47H43.7v-4h5.23v4h3.42v4.2H48.93v6.62a1.4,1.4,0,0,0,.36,1.07,1.91,1.91,0,0,0,1.23.32Z"></path><path class="cls-1" d="M55.66,6A2.5,2.5,0,0,1,54.79,4a2.54,2.54,0,0,1,.87-2,3.24,3.24,0,0,1,2.25-.78,3.19,3.19,0,0,1,2.21.78A2.54,2.54,0,0,1,61,4,2.5,2.5,0,0,1,60.12,6a3.2,3.2,0,0,1-2.21.79A3.25,3.25,0,0,1,55.66,6Zm4.84,2.5V25H55.28V8.47Z"></path><path class="cls-1" d="M91.1,10.16A7,7,0,0,1,93,15.33V25h-5.2V16a3.34,3.34,0,0,0-.87-2.47,3.73,3.73,0,0,0-4.79,0A3.34,3.34,0,0,0,81.25,16v9h-5.2V16a3.34,3.34,0,0,0-.87-2.47,3.73,3.73,0,0,0-4.79,0A3.34,3.34,0,0,0,69.52,16v9H64.29V8.47h5.23v2.07A5.46,5.46,0,0,1,71.59,8.9a6.82,6.82,0,0,1,2.91-.61,7.26,7.26,0,0,1,3.43.8,5.78,5.78,0,0,1,2.37,2.28A6.9,6.9,0,0,1,86,8.29,6.84,6.84,0,0,1,91.1,10.16Z"></path><path class="cls-1" d="M96.6,12.22a7.15,7.15,0,0,1,6.52-4,6.78,6.78,0,0,1,3.16.71,5.37,5.37,0,0,1,2.09,1.87V8.47h5.23V25h-5.23V22.63a5.51,5.51,0,0,1-2.12,1.86,6.66,6.66,0,0,1-3.16.71,7.09,7.09,0,0,1-3.79-1.05,7.31,7.31,0,0,1-2.7-3,9.6,9.6,0,0,1-1-4.48A9.53,9.53,0,0,1,96.6,12.22Zm10.69,1.51a3.59,3.59,0,0,0-2.64-1.09A3.63,3.63,0,0,0,102,13.72a4,4,0,0,0-1.08,3,4.12,4.12,0,0,0,1.08,3,3.72,3.72,0,0,0,5.29,0,4,4,0,0,0,1.08-3A4.08,4.08,0,0,0,107.29,13.73Z"></path></svg>